<?xml version="1.0" encoding="iso-8859-1"?>
<!-- Uploaded to: SVG Repo, www.svgrepo.com, Generator: SVG Repo Mixer Tools -->
<svg version="1.1" id="Layer_1" xmlns="http://www.w3.org/2000/svg" xmlns:xlink="http://www.w3.org/1999/xlink" 
	 viewBox="0 0 512.004 512.004" xml:space="preserve">
<g>
	<rect x="38.4" y="448" style="fill:#9A8984;" width="153.6" height="51.2"/>
	<polygon style="fill:#9A8984;" points="179.2,89.6 256,12.8 332.8,89.6 	"/>
</g>
<g>
	<polygon style="fill:#79615B;" points="25.6,243.2 76.8,192 435.2,192 486.4,243.2 	"/>
	<rect x="38.4" y="396.8" style="fill:#79615B;" width="153.6" height="51.2"/>
	<polygon style="fill:#79615B;" points="128,140.8 179.2,89.6 332.8,89.6 384,140.8 	"/>
</g>
<g>
	<polygon style="fill:#9A8984;" points="76.8,192 128,140.8 384,140.8 435.2,192 	"/>
	<rect x="38.4" y="345.6" style="fill:#9A8984;" width="153.6" height="51.2"/>
</g>
<rect x="320" y="396.8" style="fill:#79615B;" width="153.6" height="51.2"/>
<rect x="320" y="345.6" style="fill:#9A8984;" width="153.6" height="51.2"/>
<g>
	<rect x="38.4" y="294.4" style="fill:#79615B;" width="153.6" height="51.2"/>
	<rect x="320" y="294.4" style="fill:#79615B;" width="153.6" height="51.2"/>
</g>
<g>
	<rect x="38.4" y="243.2" style="fill:#9A8984;" width="435.2" height="51.2"/>
	<rect x="320" y="448" style="fill:#9A8984;" width="153.6" height="51.2"/>
</g>
<rect x="192" y="294.4" style="fill:#FEDEA1;" width="128" height="204.8"/>
<path style="fill:#573A32;" d="M490.146,265.054c2.5,2.5,5.777,3.746,9.054,3.746c3.277,0,6.554-1.246,9.054-3.746
	c5-5.001,5-13.099,0-18.099l-243.2-243.2c-5.001-5.001-13.099-5.001-18.099,0l-243.2,243.2c-5.001,5.001-5.001,13.099,0,18.099
	c5.001,5.001,13.099,5.001,18.099,0l3.746-3.755V486.4H12.8c-7.074,0-12.8,5.726-12.8,12.8c0,7.074,5.726,12.8,12.8,12.8h486.4
	c7.074,0,12.8-5.726,12.8-12.8c0-7.074-5.726-12.8-12.8-12.8h-12.8V261.299L490.146,265.054z M256,30.899L301.901,76.8h-91.802
	L256,30.899z M184.499,102.4h143.002l25.6,25.6H158.899L184.499,102.4z M133.299,153.6h245.402l25.6,25.6H107.699L133.299,153.6z
	 M82.099,204.8h347.802l25.6,25.6H56.499L82.099,204.8z M179.2,486.4h-128v-25.6h128V486.4z M179.2,435.2h-128v-25.6h128V435.2z
	 M179.2,384h-128v-25.6h128V384z M179.2,332.8h-128v-25.6h128V332.8z M307.2,486.4H204.8V307.2h102.4V486.4z M460.8,486.4h-128
	v-25.6h128V486.4z M460.8,435.2h-128v-25.6h128V435.2z M460.8,384h-128v-25.6h128V384z M460.8,332.8h-128v-25.6h128V332.8z
	 M460.8,281.6H51.2V256h409.6V281.6z"/>
</svg>